 <svg fill="rgba(98, 192, 189, 0.3)"
  version="1.1" 
  xmlns="http://www.w3.org/2000/svg"
    xmlns:xlink="http://www.w3.org/1999/xlink" viewBox="0, 0, 400,536.4327223960661">
    <g id="svgg">
      <path id="path0"
        d="M52.532 27.131 C 52.477 27.181,51.878 27.283,51.202 27.357 C 47.579 27.751,45.325 28.187,43.823 28.783 C 43.639 28.856,43.438 28.930,43.376 28.946 C 42.437 29.201,39.557 30.401,39.352 30.623 C 39.290 30.690,38.938 30.894,38.569 31.077 C 32.720 33.984,27.849 41.759,26.801 49.860 C 26.365 53.230,26.309 54.571,26.325 61.263 C 26.334 65.014,26.402 96.859,26.476 132.029 C 26.654 217.454,26.625 214.864,27.437 216.881 C 27.512 217.065,27.614 217.510,27.665 217.869 C 27.803 218.831,29.204 221.978,30.064 223.253 C 31.516 225.408,34.561 228.323,36.008 228.942 C 36.310 229.072,36.708 229.275,36.892 229.394 C 37.424 229.737,39.399 230.571,40.134 230.762 C 40.503 230.858,41.409 231.114,42.146 231.331 C 46.357 232.566,56.114 231.681,60.369 229.677 C 63.197 228.346,68.159 224.373,67.641 223.855 C 67.580 223.794,67.678 223.634,67.858 223.499 C 70.437 221.562,72.295 212.190,71.546 204.887 C 70.428 193.974,71.263 188.150,74.179 186.537 C 76.404 185.305,81.457 184.773,85.411 185.354 C 90.736 186.136,106.322 186.150,109.049 185.374 C 109.391 185.277,110.521 185.176,111.561 185.149 C 112.601 185.122,113.528 185.054,113.621 184.996 C 113.840 184.861,118.579 184.868,120.745 185.008 C 122.131 185.097,123.785 185.466,125.827 186.144 C 125.982 186.195,126.140 186.215,126.178 186.187 C 126.216 186.160,126.411 186.288,126.610 186.473 C 126.809 186.657,127.316 187.057,127.736 187.361 C 130.409 189.293,131.562 195.094,130.669 202.131 C 130.333 204.785,130.150 210.664,130.321 213.304 C 130.511 216.227,132.419 221.708,133.739 223.126 C 133.967 223.370,134.153 223.655,134.153 223.759 C 134.153 224.092,136.616 226.667,137.807 227.580 C 139.482 228.864,142.228 230.384,143.320 230.633 C 143.505 230.675,144.095 230.868,144.631 231.061 C 148.385 232.413,156.137 232.400,160.648 231.034 C 162.321 230.527,165.859 228.914,166.121 228.538 C 166.185 228.446,166.487 228.199,166.792 227.991 C 168.257 226.988,170.610 224.339,171.702 222.464 C 172.350 221.350,173.281 219.325,173.281 219.029 C 173.281 218.861,173.440 218.343,173.635 217.878 C 173.829 217.412,174.092 216.419,174.219 215.670 C 174.346 214.922,174.486 214.108,174.530 213.862 C 174.575 213.617,174.709 212.704,174.829 211.836 C 174.967 210.839,175.063 183.000,175.089 136.486 C 175.112 95.913,175.133 60.201,175.136 57.127 C 175.138 54.053,175.127 51.012,175.111 50.371 C 175.052 48.066,173.257 41.547,172.560 41.105 C 172.403 41.005,172.357 40.922,172.456 40.920 C 172.733 40.915,171.126 38.049,170.097 36.713 C 168.330 34.417,163.684 30.572,162.953 30.799 C 162.854 30.830,162.772 30.763,162.772 30.649 C 162.772 30.536,162.471 30.377,162.102 30.296 C 161.733 30.215,161.431 30.061,161.431 29.954 C 161.431 29.846,161.104 29.663,160.704 29.546 C 160.305 29.430,159.525 29.179,158.971 28.988 C 153.949 27.262,151.864 27.136,133.833 27.463 C 116.030 27.786,82.178 27.803,72.107 27.493 C 62.597 27.201,52.657 27.017,52.532 27.131 M248.183 27.189 C 247.689 27.269,245.088 27.655,243.799 27.840 C 243.540 27.877,242.540 28.128,241.578 28.398 C 235.903 29.991,231.150 33.415,228.082 38.122 C 227.521 38.983,227.056 39.737,227.049 39.799 C 227.041 39.860,226.842 40.263,226.606 40.693 C 226.229 41.380,225.711 42.596,225.512 43.264 C 225.475 43.387,225.390 43.639,225.324 43.823 C 224.627 45.756,224.441 46.388,224.263 47.426 C 224.149 48.088,223.908 49.335,223.727 50.196 C 223.189 52.755,223.151 57.130,223.023 131.805 C 222.882 213.983,222.829 211.365,224.730 216.993 C 224.979 217.731,225.218 218.493,225.260 218.687 C 225.367 219.180,227.056 222.636,227.667 223.613 C 228.761 225.361,230.100 227.166,230.305 227.166 C 230.423 227.166,230.520 227.268,230.520 227.392 C 230.520 227.793,235.710 233.132,240.372 237.527 C 242.783 239.800,257.534 254.444,257.412 254.444 C 257.286 254.444,267.280 264.398,269.209 266.194 C 272.776 269.514,273.336 270.003,275.797 271.951 C 277.149 273.021,278.378 273.997,278.526 274.120 C 278.675 274.243,278.844 274.343,278.903 274.343 C 278.962 274.343,279.651 274.771,280.434 275.293 C 283.224 277.156,286.712 278.807,288.495 279.110 C 288.766 279.156,289.139 279.254,289.324 279.327 C 292.138 280.452,302.592 279.872,303.435 278.545 C 303.510 278.427,303.611 278.346,303.658 278.367 C 304.219 278.608,310.181 275.618,312.241 274.063 C 312.364 273.970,313.169 273.423,314.030 272.847 C 315.571 271.817,321.098 267.455,323.375 265.473 C 324.015 264.916,325.135 263.942,325.863 263.309 C 328.702 260.841,333.135 256.875,334.398 255.674 C 334.786 255.305,335.896 254.299,336.864 253.439 C 337.833 252.579,339.128 251.409,339.743 250.839 C 341.429 249.277,342.138 248.636,343.670 247.289 C 344.440 246.613,345.414 245.732,345.835 245.333 C 346.256 244.933,346.692 244.606,346.803 244.606 C 346.915 244.606,347.131 244.405,347.285 244.159 C 347.439 243.913,347.647 243.712,347.748 243.712 C 347.850 243.712,348.203 243.460,348.533 243.153 C 348.863 242.846,350.042 241.865,351.153 240.973 C 353.312 239.239,353.746 238.879,354.343 238.331 C 354.552 238.139,355.528 237.343,356.512 236.562 C 357.496 235.781,358.517 234.932,358.781 234.675 C 359.046 234.419,359.697 233.857,360.228 233.426 C 361.522 232.378,366.909 227.141,366.909 226.932 C 366.909 226.841,367.225 226.428,367.612 226.016 C 369.086 224.442,372.275 218.905,372.275 217.919 C 372.275 217.747,372.432 217.230,372.624 216.770 C 372.816 216.310,373.009 215.669,373.052 215.346 C 373.095 215.022,373.333 213.751,373.580 212.521 C 374.255 209.167,374.248 210.119,373.943 163.331 C 373.860 150.542,373.791 139.625,373.791 139.072 C 373.786 134.735,373.367 104.823,373.267 101.700 C 373.175 98.801,372.874 58.647,372.912 54.332 C 372.924 53.049,372.022 47.552,371.631 46.524 C 371.399 45.912,371.253 45.367,371.308 45.312 C 371.408 45.212,370.558 43.024,369.860 41.587 C 369.526 40.899,367.772 38.059,367.306 37.451 C 366.442 36.325,364.998 34.842,363.890 33.944 C 363.153 33.346,362.407 32.733,362.235 32.582 C 361.855 32.252,359.638 30.954,358.860 30.607 C 358.552 30.470,358.049 30.227,357.742 30.068 C 356.365 29.356,353.701 28.606,352.320 28.542 C 352.105 28.532,351.928 28.451,351.928 28.362 C 351.928 28.272,351.451 28.130,350.866 28.045 C 350.282 27.961,349.603 27.848,349.357 27.795 C 347.637 27.426,250.335 26.843,248.183 27.189 M69.312 45.499 C 84.143 45.767,133.790 45.710,140.078 45.417 C 155.111 44.718,157.231 46.078,157.163 56.376 C 157.147 58.757,157.110 94.159,157.081 135.048 C 157.031 203.189,156.996 209.531,156.658 211.068 C 156.455 211.990,156.289 212.816,156.289 212.904 C 156.288 213.861,150.878 214.401,149.442 213.587 C 148.209 212.889,147.869 209.678,148.547 205.143 C 148.730 203.913,148.862 202.438,148.840 201.866 C 148.817 201.293,148.884 200.878,148.989 200.943 C 149.189 201.067,149.044 193.952,148.816 192.398 C 148.330 189.100,147.927 187.132,147.571 186.322 C 147.346 185.809,147.212 185.339,147.274 185.277 C 147.416 185.135,145.616 180.969,145.071 180.178 C 144.846 179.851,144.661 179.499,144.661 179.395 C 144.660 179.291,144.319 178.835,143.902 178.381 C 143.485 177.928,143.194 177.506,143.256 177.445 C 143.886 176.814,135.593 170.271,134.528 170.559 C 134.426 170.587,134.398 170.520,134.466 170.412 C 134.684 170.058,130.667 168.552,127.565 167.825 C 122.077 166.538,114.491 166.458,105.569 167.593 C 100.343 168.257,93.884 168.226,88.669 167.512 C 86.078 167.156,75.106 167.334,73.337 167.760 C 70.234 168.507,69.760 168.643,69.760 168.790 C 69.760 168.870,69.514 168.956,69.215 168.981 C 65.600 169.280,58.900 174.987,56.424 179.877 C 53.247 186.150,52.287 193.737,53.411 203.689 C 54.134 210.096,53.792 212.768,52.162 213.449 C 51.222 213.842,46.743 213.915,45.792 213.553 C 44.671 213.127,44.713 215.576,44.642 146.339 C 44.605 110.430,44.506 75.416,44.421 68.530 C 44.137 45.528,44.470 45.010,59.363 45.308 C 62.560 45.371,67.037 45.457,69.312 45.499 M337.283 45.505 C 347.758 45.629,348.931 45.768,351.303 47.168 C 352.194 47.693,353.717 49.420,353.717 49.904 C 353.717 50.071,353.874 50.432,354.065 50.705 C 354.257 50.978,354.360 51.202,354.294 51.202 C 354.229 51.202,354.264 51.435,354.373 51.721 C 354.747 52.705,354.818 55.183,355.046 75.014 C 355.172 85.959,355.326 96.473,355.389 98.379 C 355.452 100.285,355.508 106.574,355.515 112.353 C 355.526 121.645,355.652 132.805,356.057 160.425 C 356.679 202.799,356.514 209.297,354.729 212.859 C 354.164 213.986,348.506 220.011,348.013 220.011 C 347.920 220.011,347.631 220.238,347.371 220.514 C 347.110 220.791,346.017 221.713,344.941 222.563 C 343.865 223.413,342.985 224.192,342.985 224.295 C 342.985 224.399,342.838 224.483,342.657 224.483 C 342.477 224.483,342.222 224.684,342.091 224.930 C 341.959 225.176,341.740 225.377,341.604 225.377 C 341.468 225.377,341.246 225.512,341.109 225.677 C 340.973 225.842,339.754 226.869,338.401 227.960 C 337.049 229.050,335.676 230.211,335.350 230.540 C 335.025 230.869,334.657 231.175,334.532 231.220 C 334.333 231.293,332.158 233.187,330.458 234.768 C 330.128 235.075,329.066 236.031,328.098 236.892 C 327.130 237.753,325.808 238.966,325.159 239.588 C 324.511 240.210,323.980 240.668,323.980 240.606 C 323.980 240.544,323.641 240.841,323.226 241.264 C 322.812 241.688,321.736 242.689,320.836 243.488 C 319.936 244.287,318.792 245.310,318.292 245.761 C 317.793 246.211,316.780 247.108,316.042 247.752 C 315.305 248.397,314.550 249.062,314.366 249.231 C 313.111 250.377,310.172 252.846,307.679 254.849 C 304.913 257.070,304.572 257.336,304.040 257.686 C 303.853 257.809,303.258 258.209,302.717 258.576 C 301.620 259.318,301.495 259.396,299.738 260.425 C 299.056 260.824,298.406 261.151,298.295 261.151 C 298.184 261.151,297.654 261.351,297.118 261.594 C 295.462 262.345,293.236 261.989,291.301 260.664 C 290.975 260.440,290.643 260.257,290.563 260.257 C 290.312 260.257,287.120 257.828,285.401 256.328 C 284.494 255.538,283.707 254.891,283.652 254.891 C 283.540 254.891,272.485 243.856,264.032 235.305 C 261.004 232.243,257.101 228.379,255.359 226.719 C 253.616 225.059,251.454 222.974,250.553 222.085 C 249.653 221.197,248.844 220.543,248.755 220.632 C 248.666 220.721,248.618 220.693,248.649 220.570 C 248.680 220.447,247.757 219.374,246.599 218.185 C 245.442 216.996,244.343 215.802,244.159 215.532 C 243.974 215.262,243.661 214.826,243.462 214.563 C 242.858 213.765,241.923 211.781,241.923 211.299 C 241.923 211.049,241.833 210.844,241.724 210.844 C 241.615 210.844,241.537 210.718,241.552 210.565 C 241.566 210.411,241.429 209.380,241.247 208.273 C 240.963 206.540,240.917 199.464,240.917 157.406 C 240.917 58.025,240.949 54.921,242.039 51.006 C 242.231 50.314,242.401 49.623,242.417 49.469 C 242.432 49.315,242.534 49.189,242.644 49.189 C 242.754 49.189,242.792 49.107,242.730 49.005 C 242.571 48.748,244.570 46.506,244.959 46.506 C 245.134 46.506,245.277 46.389,245.277 46.246 C 245.277 46.102,245.340 46.048,245.418 46.126 C 245.496 46.204,245.772 46.150,246.033 46.007 C 247.488 45.208,248.933 45.185,289.435 45.298 C 311.202 45.358,332.733 45.452,337.283 45.505 M112.680 265.473 C 112.613 265.545,111.658 265.615,110.556 265.629 C 109.454 265.643,107.244 265.823,105.646 266.030 C 101.529 266.561,89.369 266.556,84.516 266.021 C 81.255 265.661,73.497 265.585,72.972 265.907 C 72.865 265.973,72.376 266.089,71.884 266.166 C 71.392 266.243,70.337 266.410,69.540 266.536 C 68.742 266.663,67.669 266.953,67.153 267.181 C 66.638 267.409,66.168 267.547,66.109 267.488 C 66.050 267.429,65.594 267.589,65.095 267.844 C 64.596 268.098,64.046 268.306,63.874 268.306 C 63.701 268.306,63.304 268.508,62.991 268.753 C 62.678 268.999,62.310 269.201,62.173 269.201 C 61.966 269.201,60.700 269.946,59.810 270.593 C 56.154 273.247,51.574 279.265,51.574 281.415 C 51.574 281.584,51.506 281.722,51.421 281.722 C 51.305 281.722,50.750 283.434,50.408 284.852 C 50.393 284.913,50.326 285.115,50.259 285.299 C 50.150 285.601,49.902 287.109,49.489 289.994 C 49.128 292.506,49.324 299.415,49.870 303.460 C 50.195 305.861,50.281 309.128,50.048 310.164 C 49.941 310.642,49.830 311.151,49.801 311.296 C 49.665 311.980,47.553 313.025,46.311 313.023 C 41.706 313.018,33.468 317.916,30.571 322.384 C 29.318 324.315,27.725 327.632,27.725 328.309 C 27.725 328.480,27.575 329.043,27.393 329.561 C 26.298 332.664,26.313 331.705,26.214 404.919 C 26.163 442.487,26.107 475.690,26.089 478.703 C 26.041 487.044,26.818 491.321,29.320 496.478 C 30.834 499.598,33.488 502.806,35.866 504.392 C 36.347 504.713,37.001 505.147,37.319 505.357 C 39.871 507.041,44.702 508.690,48.072 509.028 C 48.994 509.120,49.799 509.208,49.860 509.223 C 50.932 509.487,55.669 509.532,62.493 509.343 C 77.083 508.937,112.011 508.802,125.880 509.097 C 132.828 509.245,140.878 509.414,143.767 509.473 C 164.564 509.896,174.786 500.879,175.098 481.833 C 175.191 476.224,175.196 395.428,175.106 372.499 C 175.053 359.019,175.115 351.450,175.312 347.521 C 176.133 331.167,172.793 322.335,163.373 315.948 C 161.551 314.713,157.657 312.789,156.400 312.503 C 156.277 312.475,156.076 312.392,155.953 312.317 C 155.745 312.192,154.500 311.884,154.112 311.863 C 154.018 311.857,153.742 311.714,153.500 311.544 C 153.257 311.374,152.804 311.234,152.494 311.232 C 151.128 311.224,151.150 311.758,152.192 303.857 C 152.474 301.714,152.652 296.600,152.537 293.907 C 152.387 290.388,150.266 281.945,149.532 281.945 C 149.421 281.945,149.377 281.870,149.433 281.778 C 149.553 281.580,148.779 280.072,147.510 278.034 C 146.801 276.894,144.309 274.055,143.258 273.188 C 142.616 272.658,142.040 272.174,141.979 272.110 C 141.039 271.144,135.626 268.208,135.134 268.397 C 134.963 268.462,134.824 268.427,134.824 268.318 C 134.824 267.917,130.948 266.775,127.222 266.079 C 124.701 265.607,113.005 265.120,112.680 265.473 M124.183 283.966 C 132.079 285.538,134.470 288.686,134.450 297.485 C 134.446 299.206,134.376 300.917,134.293 301.286 C 134.210 301.655,134.098 302.459,134.045 303.074 C 133.991 303.689,133.782 305.249,133.581 306.540 C 132.732 311.981,133.855 318.157,136.447 322.299 C 137.534 324.036,140.169 326.340,141.979 327.135 C 143.628 327.860,144.079 328.012,144.944 328.133 C 147.123 328.438,151.159 329.743,152.298 330.511 C 152.625 330.731,152.977 330.911,153.081 330.911 C 153.352 330.911,155.394 332.846,155.394 333.102 C 155.394 333.220,155.538 333.435,155.714 333.582 C 155.890 333.728,156.318 334.721,156.665 335.789 L 157.295 337.731 157.195 344.662 C 157.141 348.474,157.099 354.310,157.103 357.630 C 157.107 360.950,157.126 372.823,157.144 384.013 C 157.163 395.204,157.129 411.001,157.069 419.117 C 156.926 438.618,156.929 462.116,157.074 469.760 C 157.226 477.690,157.221 482.377,157.061 483.381 C 155.861 490.915,154.396 491.630,140.861 491.293 C 131.991 491.072,70.098 491.052,60.481 491.267 C 45.254 491.607,44.167 490.761,44.204 478.591 C 44.211 476.009,44.269 443.108,44.332 405.478 C 44.447 337.082,44.477 334.694,45.228 333.241 C 45.798 332.139,47.892 330.918,49.231 330.907 C 50.771 330.894,55.560 329.333,57.851 328.096 C 59.271 327.329,62.603 324.788,62.607 324.469 C 62.608 324.384,62.935 323.961,63.333 323.527 C 64.728 322.011,66.329 319.257,66.065 318.829 C 65.992 318.711,66.032 318.614,66.154 318.614 C 66.358 318.614,66.702 317.911,66.754 317.384 C 66.767 317.261,66.989 316.456,67.248 315.595 C 67.823 313.683,68.277 308.755,68.096 306.385 C 68.022 305.425,67.913 304.036,67.853 303.298 C 66.948 292.219,67.344 288.514,69.704 285.995 C 70.226 285.437,70.654 285.050,70.654 285.136 C 70.654 285.222,71.031 285.101,71.492 284.868 C 73.553 283.827,78.549 283.509,83.846 284.081 C 88.885 284.626,102.901 284.561,107.993 283.969 C 114.455 283.219,120.426 283.217,124.183 283.966 M237.228 307.251 C 235.511 307.779,233.569 308.595,233.464 308.832 C 233.423 308.924,233.254 308.999,233.088 308.999 C 232.923 308.999,232.630 309.158,232.436 309.351 C 232.243 309.544,232.085 309.626,232.085 309.533 C 232.085 309.439,231.783 309.652,231.414 310.006 C 231.045 310.359,230.743 310.567,230.743 310.468 C 230.743 310.025,227.464 313.656,226.819 314.813 C 226.580 315.243,226.332 315.646,226.269 315.707 C 224.980 316.970,224.144 321.342,224.155 326.775 C 224.158 328.742,224.185 365.819,224.214 409.167 C 224.261 479.354,224.305 488.153,224.613 489.547 C 224.804 490.408,225.016 491.490,225.086 491.951 C 225.156 492.412,225.306 492.789,225.420 492.789 C 225.534 492.789,225.577 492.870,225.516 492.969 C 225.124 493.603,228.550 500.438,229.442 500.801 C 229.543 500.842,229.625 500.973,229.625 501.091 C 229.625 501.297,231.739 503.522,231.934 503.522 C 231.986 503.522,232.419 503.881,232.895 504.319 C 233.774 505.128,237.062 507.099,237.531 507.098 C 237.672 507.098,238.189 507.291,238.681 507.527 C 239.957 508.139,242.609 508.820,244.900 509.124 C 247.774 509.505,349.956 509.489,351.705 509.107 C 352.381 508.960,353.136 508.848,353.382 508.859 C 355.196 508.940,360.812 506.669,363.537 504.751 C 363.951 504.460,367.848 500.564,368.139 500.150 C 369.436 498.306,371.381 494.379,371.381 493.602 C 371.381 493.432,371.535 492.854,371.724 492.319 C 372.018 491.488,372.447 488.786,372.752 485.858 C 372.797 485.428,372.833 481.906,372.831 478.032 C 372.783 355.905,372.694 323.079,372.405 321.185 C 371.973 318.357,370.968 315.550,369.830 314.000 C 369.638 313.738,369.329 313.296,369.145 313.020 C 368.860 312.592,367.791 311.518,366.258 310.117 C 365.677 309.587,364.036 308.552,363.776 308.552 C 363.646 308.552,363.310 308.402,363.031 308.219 C 362.386 307.796,360.408 307.195,360.163 307.346 C 360.061 307.409,359.978 307.371,359.978 307.261 C 359.978 306.333,350.123 306.891,349.245 307.869 C 349.184 307.937,349.033 308.011,348.910 308.032 C 348.622 308.081,346.809 308.932,346.227 309.290 C 344.913 310.099,343.879 310.870,343.879 311.041 C 343.879 311.148,343.777 311.235,343.653 311.235 C 343.375 311.235,342.507 312.035,338.442 316.042 C 336.695 317.764,333.305 321.032,330.908 323.305 C 328.512 325.578,323.077 330.911,318.831 335.155 C 311.792 342.193,309.451 344.652,305.869 348.768 C 301.170 354.169,299.107 355.370,297.180 353.823 C 293.813 351.120,293.485 350.806,289.220 346.206 C 287.748 344.619,285.535 342.280,284.301 341.008 C 283.067 339.736,281.924 338.553,281.762 338.380 C 281.599 338.207,281.373 338.066,281.258 338.066 C 281.144 338.066,281.076 337.981,281.107 337.876 C 281.181 337.623,275.374 331.805,275.046 331.805 C 274.906 331.805,274.816 331.726,274.846 331.630 C 274.921 331.396,270.754 327.430,270.510 327.501 C 270.405 327.532,270.341 327.482,270.368 327.390 C 270.421 327.208,267.281 324.195,264.250 321.520 C 263.400 320.770,259.282 316.685,256.775 314.106 C 252.707 309.921,250.838 308.656,246.746 307.321 C 244.423 306.563,239.581 306.527,237.228 307.251 M244.550 327.550 C 245.565 328.594,246.395 329.482,246.395 329.524 C 246.395 329.643,249.481 332.619,252.006 334.936 C 259.698 341.991,266.436 348.557,271.866 354.289 C 273.024 355.512,274.081 356.478,274.213 356.437 C 274.346 356.396,274.381 356.437,274.291 356.527 C 274.201 356.617,275.408 358.053,276.974 359.717 C 283.650 366.813,286.516 369.042,292.075 371.462 C 296.391 373.340,302.486 373.099,307.279 370.859 C 311.673 368.806,314.633 366.250,321.437 358.636 C 326.482 352.989,330.876 348.512,338.983 340.755 C 341.614 338.237,344.847 335.118,346.167 333.825 C 347.486 332.531,348.669 331.439,348.795 331.397 C 348.921 331.355,348.968 331.228,348.898 331.116 C 348.829 331.003,348.904 330.911,349.065 330.911 C 349.373 330.911,350.624 329.697,350.583 329.439 C 350.570 329.357,350.791 329.168,351.076 329.020 C 351.360 328.872,351.568 328.633,351.537 328.489 C 351.506 328.346,351.607 328.228,351.761 328.227 C 351.914 328.226,352.619 327.625,353.326 326.890 L 354.612 325.554 354.667 399.166 C 354.738 491.812,354.759 486.406,354.316 487.591 C 354.121 488.113,354.006 488.541,354.061 488.541 C 354.324 488.541,353.061 489.775,352.303 490.259 C 350.506 491.404,350.973 491.393,306.875 491.315 C 284.371 491.275,262.387 491.313,258.021 491.401 C 245.081 491.660,243.496 491.185,242.503 486.752 C 242.027 484.632,242.067 492.891,242.114 406.484 C 242.136 365.472,242.086 330.358,242.004 328.452 C 241.830 324.410,241.585 324.496,244.550 327.550 "
        stroke="none" fill-rule="evenodd"></path>
      <path id="path1"
        d="M280.771 27.221 C 282.032 27.261,284.094 27.261,285.355 27.221 C 286.615 27.181,285.584 27.149,283.063 27.149 C 280.542 27.149,279.511 27.181,280.771 27.221 M318.117 45.329 C 318.642 45.376,319.447 45.375,319.905 45.327 C 320.363 45.279,319.933 45.241,318.949 45.242 C 317.965 45.242,317.591 45.282,318.117 45.329 M26.212 60.369 C 26.212 60.799,26.258 60.975,26.314 60.760 C 26.370 60.545,26.370 60.193,26.314 59.978 C 26.258 59.762,26.212 59.939,26.212 60.369 M373.010 73.449 C 373.011 74.064,373.055 74.289,373.106 73.949 C 373.158 73.609,373.156 73.106,373.103 72.831 C 373.050 72.556,373.008 72.834,373.010 73.449 M373.010 75.908 C 373.011 76.523,373.055 76.748,373.106 76.408 C 373.158 76.068,373.156 75.565,373.103 75.290 C 373.050 75.015,373.008 75.293,373.010 75.908 M373.010 78.368 C 373.011 78.983,373.055 79.208,373.106 78.868 C 373.158 78.528,373.156 78.025,373.103 77.750 C 373.050 77.475,373.008 77.753,373.010 78.368 M44.340 79.486 C 44.341 80.224,44.383 80.498,44.433 80.097 C 44.482 79.695,44.481 79.091,44.430 78.755 C 44.379 78.419,44.339 78.748,44.340 79.486 M373.010 80.604 C 373.011 81.219,373.055 81.444,373.106 81.104 C 373.158 80.764,373.156 80.261,373.103 79.986 C 373.050 79.711,373.008 79.989,373.010 80.604 M373.010 82.840 C 373.011 83.454,373.055 83.679,373.106 83.340 C 373.158 83.000,373.156 82.497,373.103 82.222 C 373.050 81.947,373.008 82.225,373.010 82.840 M373.010 85.075 C 373.011 85.690,373.055 85.915,373.106 85.575 C 373.158 85.236,373.156 84.733,373.103 84.458 C 373.050 84.183,373.008 84.461,373.010 85.075 M174.946 101.845 C 174.946 105.903,174.976 107.594,175.014 105.604 C 175.051 103.613,175.051 100.293,175.014 98.225 C 174.977 96.158,174.946 97.786,174.946 101.845 M355.339 99.385 C 355.341 99.877,355.387 100.052,355.440 99.774 C 355.494 99.496,355.492 99.093,355.436 98.879 C 355.380 98.666,355.336 98.893,355.339 99.385 M373.230 100.838 C 373.230 101.392,373.274 101.618,373.327 101.342 C 373.380 101.065,373.380 100.612,373.327 100.335 C 373.274 100.059,373.230 100.285,373.230 100.838 M240.911 124.986 C 240.911 134.025,240.939 137.722,240.973 133.203 C 241.006 128.684,241.006 121.288,240.973 116.769 C 240.939 112.250,240.911 115.947,240.911 124.986 M355.562 119.508 C 355.565 120.000,355.611 120.175,355.664 119.897 C 355.717 119.619,355.715 119.216,355.659 119.002 C 355.604 118.789,355.560 119.016,355.562 119.508 M174.950 136.277 C 174.949 142.057,174.978 144.454,175.014 141.603 C 175.049 138.752,175.049 134.023,175.014 131.094 C 174.978 128.165,174.950 130.497,174.950 136.277 M373.673 139.184 C 373.675 139.676,373.721 139.851,373.775 139.573 C 373.828 139.294,373.826 138.892,373.770 138.678 C 373.714 138.464,373.670 138.692,373.673 139.184 M240.914 172.722 C 240.914 189.939,240.940 196.949,240.973 188.300 C 241.005 179.652,241.005 165.565,240.973 156.998 C 240.940 148.430,240.914 155.506,240.914 172.722 M373.901 151.146 C 373.901 151.699,373.945 151.926,373.998 151.649 C 374.051 151.372,374.051 150.920,373.998 150.643 C 373.945 150.366,373.901 150.593,373.901 151.146 M373.901 153.382 C 373.901 153.935,373.945 154.162,373.998 153.885 C 374.051 153.608,374.051 153.155,373.998 152.879 C 373.945 152.602,373.901 152.828,373.901 153.382 M373.901 155.618 C 373.901 156.171,373.945 156.397,373.998 156.121 C 374.051 155.844,374.051 155.391,373.998 155.115 C 373.945 154.838,373.901 155.064,373.901 155.618 M373.904 157.742 C 373.906 158.357,373.949 158.582,374.001 158.242 C 374.052 157.902,374.051 157.399,373.998 157.124 C 373.944 156.849,373.902 157.127,373.904 157.742 M373.904 159.978 C 373.906 160.593,373.949 160.818,374.001 160.478 C 374.052 160.138,374.051 159.635,373.998 159.360 C 373.944 159.085,373.902 159.363,373.904 159.978 M373.907 162.549 C 373.907 163.225,373.949 163.502,374.000 163.164 C 374.052 162.826,374.052 162.272,374.000 161.934 C 373.949 161.596,373.907 161.873,373.907 162.549 M356.259 185.579 C 356.259 186.870,356.296 187.398,356.341 186.752 C 356.387 186.107,356.387 185.050,356.341 184.405 C 356.296 183.759,356.259 184.287,356.259 185.579 M374.153 190.274 C 374.153 192.057,374.187 192.786,374.230 191.895 C 374.272 191.003,374.272 189.544,374.230 188.653 C 374.187 187.761,374.153 188.491,374.153 190.274 M77.977 265.781 C 78.253 265.834,78.706 265.834,78.983 265.781 C 79.259 265.728,79.033 265.684,78.480 265.684 C 77.926 265.684,77.700 265.728,77.977 265.781 M157.247 373.728 C 157.248 374.343,157.292 374.568,157.343 374.228 C 157.395 373.888,157.393 373.385,157.340 373.110 C 157.287 372.835,157.245 373.113,157.247 373.728 M157.254 385.467 C 157.254 386.266,157.295 386.593,157.345 386.193 C 157.394 385.794,157.394 385.140,157.345 384.740 C 157.295 384.340,157.254 384.667,157.254 385.467 M174.920 426.048 C 174.921 426.909,174.961 427.234,175.009 426.770 C 175.058 426.306,175.057 425.602,175.008 425.205 C 174.958 424.808,174.919 425.187,174.920 426.048 M157.034 431.973 C 157.034 432.895,157.074 433.273,157.122 432.812 C 157.170 432.350,157.170 431.596,157.122 431.135 C 157.074 430.674,157.034 431.051,157.034 431.973 M26.235 460.816 C 26.235 461.738,26.275 462.116,26.323 461.655 C 26.371 461.193,26.371 460.439,26.323 459.978 C 26.275 459.516,26.235 459.894,26.235 460.816 M26.231 463.946 C 26.231 464.746,26.272 465.073,26.322 464.673 C 26.371 464.273,26.371 463.619,26.322 463.220 C 26.272 462.820,26.231 463.147,26.231 463.946 M157.011 464.617 C 157.011 465.048,157.057 465.224,157.113 465.008 C 157.170 464.793,157.170 464.441,157.113 464.226 C 157.057 464.011,157.011 464.187,157.011 464.617 M241.990 482.281 C 241.990 482.957,242.032 483.234,242.083 482.895 C 242.134 482.557,242.134 482.004,242.083 481.666 C 242.032 481.328,241.990 481.604,241.990 482.281 M76.190 491.159 C 76.469 491.212,76.871 491.210,77.085 491.154 C 77.299 491.098,77.071 491.054,76.579 491.057 C 76.087 491.059,75.912 491.105,76.190 491.159 M125.489 491.155 C 125.704 491.211,126.056 491.211,126.272 491.155 C 126.487 491.098,126.311 491.052,125.880 491.052 C 125.450 491.052,125.274 491.098,125.489 491.155 M275.070 491.389 C 275.777 491.434,276.934 491.434,277.641 491.389 C 278.348 491.345,277.770 491.309,276.356 491.309 C 274.941 491.309,274.363 491.345,275.070 491.389 M316.554 491.390 C 317.328 491.434,318.535 491.433,319.237 491.389 C 319.940 491.345,319.307 491.309,317.831 491.310 C 316.356 491.310,315.781 491.346,316.554 491.390 M252.827 509.497 C 253.229 509.547,253.832 509.546,254.168 509.495 C 254.504 509.444,254.176 509.403,253.438 509.404 C 252.700 509.405,252.425 509.447,252.827 509.497 M340.697 509.497 C 341.099 509.547,341.703 509.546,342.039 509.495 C 342.375 509.444,342.046 509.403,341.308 509.404 C 340.570 509.405,340.295 509.447,340.697 509.497 "
        stroke="none" fill-rule="evenodd"></path>
      <path id="path2"
        d="M280.771 27.221 C 282.032 27.261,284.094 27.261,285.355 27.221 C 286.615 27.181,285.584 27.149,283.063 27.149 C 280.542 27.149,279.511 27.181,280.771 27.221 M318.117 45.329 C 318.642 45.376,319.447 45.375,319.905 45.327 C 320.363 45.279,319.933 45.241,318.949 45.242 C 317.965 45.242,317.591 45.282,318.117 45.329 M26.212 60.369 C 26.212 60.799,26.258 60.975,26.314 60.760 C 26.370 60.545,26.370 60.193,26.314 59.978 C 26.258 59.762,26.212 59.939,26.212 60.369 M373.010 73.449 C 373.011 74.064,373.055 74.289,373.106 73.949 C 373.158 73.609,373.156 73.106,373.103 72.831 C 373.050 72.556,373.008 72.834,373.010 73.449 M373.010 75.908 C 373.011 76.523,373.055 76.748,373.106 76.408 C 373.158 76.068,373.156 75.565,373.103 75.290 C 373.050 75.015,373.008 75.293,373.010 75.908 M373.010 78.368 C 373.011 78.983,373.055 79.208,373.106 78.868 C 373.158 78.528,373.156 78.025,373.103 77.750 C 373.050 77.475,373.008 77.753,373.010 78.368 M44.340 79.486 C 44.341 80.224,44.383 80.498,44.433 80.097 C 44.482 79.695,44.481 79.091,44.430 78.755 C 44.379 78.419,44.339 78.748,44.340 79.486 M373.010 80.604 C 373.011 81.219,373.055 81.444,373.106 81.104 C 373.158 80.764,373.156 80.261,373.103 79.986 C 373.050 79.711,373.008 79.989,373.010 80.604 M373.010 82.840 C 373.011 83.454,373.055 83.679,373.106 83.340 C 373.158 83.000,373.156 82.497,373.103 82.222 C 373.050 81.947,373.008 82.225,373.010 82.840 M373.010 85.075 C 373.011 85.690,373.055 85.915,373.106 85.575 C 373.158 85.236,373.156 84.733,373.103 84.458 C 373.050 84.183,373.008 84.461,373.010 85.075 M174.946 101.845 C 174.946 105.903,174.976 107.594,175.014 105.604 C 175.051 103.613,175.051 100.293,175.014 98.225 C 174.977 96.158,174.946 97.786,174.946 101.845 M355.339 99.385 C 355.341 99.877,355.387 100.052,355.440 99.774 C 355.494 99.496,355.492 99.093,355.436 98.879 C 355.380 98.666,355.336 98.893,355.339 99.385 M373.230 100.838 C 373.230 101.392,373.274 101.618,373.327 101.342 C 373.380 101.065,373.380 100.612,373.327 100.335 C 373.274 100.059,373.230 100.285,373.230 100.838 M240.911 124.986 C 240.911 134.025,240.939 137.722,240.973 133.203 C 241.006 128.684,241.006 121.288,240.973 116.769 C 240.939 112.250,240.911 115.947,240.911 124.986 M355.562 119.508 C 355.565 120.000,355.611 120.175,355.664 119.897 C 355.717 119.619,355.715 119.216,355.659 119.002 C 355.604 118.789,355.560 119.016,355.562 119.508 M174.950 136.277 C 174.949 142.057,174.978 144.454,175.014 141.603 C 175.049 138.752,175.049 134.023,175.014 131.094 C 174.978 128.165,174.950 130.497,174.950 136.277 M373.673 139.184 C 373.675 139.676,373.721 139.851,373.775 139.573 C 373.828 139.294,373.826 138.892,373.770 138.678 C 373.714 138.464,373.670 138.692,373.673 139.184 M240.914 172.722 C 240.914 189.939,240.940 196.949,240.973 188.300 C 241.005 179.652,241.005 165.565,240.973 156.998 C 240.940 148.430,240.914 155.506,240.914 172.722 M373.901 151.146 C 373.901 151.699,373.945 151.926,373.998 151.649 C 374.051 151.372,374.051 150.920,373.998 150.643 C 373.945 150.366,373.901 150.593,373.901 151.146 M373.901 153.382 C 373.901 153.935,373.945 154.162,373.998 153.885 C 374.051 153.608,374.051 153.155,373.998 152.879 C 373.945 152.602,373.901 152.828,373.901 153.382 M373.901 155.618 C 373.901 156.171,373.945 156.397,373.998 156.121 C 374.051 155.844,374.051 155.391,373.998 155.115 C 373.945 154.838,373.901 155.064,373.901 155.618 M373.904 157.742 C 373.906 158.357,373.949 158.582,374.001 158.242 C 374.052 157.902,374.051 157.399,373.998 157.124 C 373.944 156.849,373.902 157.127,373.904 157.742 M373.904 159.978 C 373.906 160.593,373.949 160.818,374.001 160.478 C 374.052 160.138,374.051 159.635,373.998 159.360 C 373.944 159.085,373.902 159.363,373.904 159.978 M373.907 162.549 C 373.907 163.225,373.949 163.502,374.000 163.164 C 374.052 162.826,374.052 162.272,374.000 161.934 C 373.949 161.596,373.907 161.873,373.907 162.549 M356.259 185.579 C 356.259 186.870,356.296 187.398,356.341 186.752 C 356.387 186.107,356.387 185.050,356.341 184.405 C 356.296 183.759,356.259 184.287,356.259 185.579 M374.153 190.274 C 374.153 192.057,374.187 192.786,374.230 191.895 C 374.272 191.003,374.272 189.544,374.230 188.653 C 374.187 187.761,374.153 188.491,374.153 190.274 M77.977 265.781 C 78.253 265.834,78.706 265.834,78.983 265.781 C 79.259 265.728,79.033 265.684,78.480 265.684 C 77.926 265.684,77.700 265.728,77.977 265.781 M157.247 373.728 C 157.248 374.343,157.292 374.568,157.343 374.228 C 157.395 373.888,157.393 373.385,157.340 373.110 C 157.287 372.835,157.245 373.113,157.247 373.728 M157.254 385.467 C 157.254 386.266,157.295 386.593,157.345 386.193 C 157.394 385.794,157.394 385.140,157.345 384.740 C 157.295 384.340,157.254 384.667,157.254 385.467 M174.920 426.048 C 174.921 426.909,174.961 427.234,175.009 426.770 C 175.058 426.306,175.057 425.602,175.008 425.205 C 174.958 424.808,174.919 425.187,174.920 426.048 M157.034 431.973 C 157.034 432.895,157.074 433.273,157.122 432.812 C 157.170 432.350,157.170 431.596,157.122 431.135 C 157.074 430.674,157.034 431.051,157.034 431.973 M26.235 460.816 C 26.235 461.738,26.275 462.116,26.323 461.655 C 26.371 461.193,26.371 460.439,26.323 459.978 C 26.275 459.516,26.235 459.894,26.235 460.816 M26.231 463.946 C 26.231 464.746,26.272 465.073,26.322 464.673 C 26.371 464.273,26.371 463.619,26.322 463.220 C 26.272 462.820,26.231 463.147,26.231 463.946 M157.011 464.617 C 157.011 465.048,157.057 465.224,157.113 465.008 C 157.170 464.793,157.170 464.441,157.113 464.226 C 157.057 464.011,157.011 464.187,157.011 464.617 M241.990 482.281 C 241.990 482.957,242.032 483.234,242.083 482.895 C 242.134 482.557,242.134 482.004,242.083 481.666 C 242.032 481.328,241.990 481.604,241.990 482.281 M76.190 491.159 C 76.469 491.212,76.871 491.210,77.085 491.154 C 77.299 491.098,77.071 491.054,76.579 491.057 C 76.087 491.059,75.912 491.105,76.190 491.159 M125.489 491.155 C 125.704 491.211,126.056 491.211,126.272 491.155 C 126.487 491.098,126.311 491.052,125.880 491.052 C 125.450 491.052,125.274 491.098,125.489 491.155 M275.070 491.389 C 275.777 491.434,276.934 491.434,277.641 491.389 C 278.348 491.345,277.770 491.309,276.356 491.309 C 274.941 491.309,274.363 491.345,275.070 491.389 M316.554 491.390 C 317.328 491.434,318.535 491.433,319.237 491.389 C 319.940 491.345,319.307 491.309,317.831 491.310 C 316.356 491.310,315.781 491.346,316.554 491.390 M252.827 509.497 C 253.229 509.547,253.832 509.546,254.168 509.495 C 254.504 509.444,254.176 509.403,253.438 509.404 C 252.700 509.405,252.425 509.447,252.827 509.497 M340.697 509.497 C 341.099 509.547,341.703 509.546,342.039 509.495 C 342.375 509.444,342.046 509.403,341.308 509.404 C 340.570 509.405,340.295 509.447,340.697 509.497 "
        stroke="none" fill-rule="evenodd"></path>
      <path id="path3"
        d="M280.771 27.221 C 282.032 27.261,284.094 27.261,285.355 27.221 C 286.615 27.181,285.584 27.149,283.063 27.149 C 280.542 27.149,279.511 27.181,280.771 27.221 M318.117 45.329 C 318.642 45.376,319.447 45.375,319.905 45.327 C 320.363 45.279,319.933 45.241,318.949 45.242 C 317.965 45.242,317.591 45.282,318.117 45.329 M26.212 60.369 C 26.212 60.799,26.258 60.975,26.314 60.760 C 26.370 60.545,26.370 60.193,26.314 59.978 C 26.258 59.762,26.212 59.939,26.212 60.369 M373.010 73.449 C 373.011 74.064,373.055 74.289,373.106 73.949 C 373.158 73.609,373.156 73.106,373.103 72.831 C 373.050 72.556,373.008 72.834,373.010 73.449 M373.010 75.908 C 373.011 76.523,373.055 76.748,373.106 76.408 C 373.158 76.068,373.156 75.565,373.103 75.290 C 373.050 75.015,373.008 75.293,373.010 75.908 M373.010 78.368 C 373.011 78.983,373.055 79.208,373.106 78.868 C 373.158 78.528,373.156 78.025,373.103 77.750 C 373.050 77.475,373.008 77.753,373.010 78.368 M44.340 79.486 C 44.341 80.224,44.383 80.498,44.433 80.097 C 44.482 79.695,44.481 79.091,44.430 78.755 C 44.379 78.419,44.339 78.748,44.340 79.486 M373.010 80.604 C 373.011 81.219,373.055 81.444,373.106 81.104 C 373.158 80.764,373.156 80.261,373.103 79.986 C 373.050 79.711,373.008 79.989,373.010 80.604 M373.010 82.840 C 373.011 83.454,373.055 83.679,373.106 83.340 C 373.158 83.000,373.156 82.497,373.103 82.222 C 373.050 81.947,373.008 82.225,373.010 82.840 M373.010 85.075 C 373.011 85.690,373.055 85.915,373.106 85.575 C 373.158 85.236,373.156 84.733,373.103 84.458 C 373.050 84.183,373.008 84.461,373.010 85.075 M174.946 101.845 C 174.946 105.903,174.976 107.594,175.014 105.604 C 175.051 103.613,175.051 100.293,175.014 98.225 C 174.977 96.158,174.946 97.786,174.946 101.845 M355.339 99.385 C 355.341 99.877,355.387 100.052,355.440 99.774 C 355.494 99.496,355.492 99.093,355.436 98.879 C 355.380 98.666,355.336 98.893,355.339 99.385 M373.230 100.838 C 373.230 101.392,373.274 101.618,373.327 101.342 C 373.380 101.065,373.380 100.612,373.327 100.335 C 373.274 100.059,373.230 100.285,373.230 100.838 M240.911 124.986 C 240.911 134.025,240.939 137.722,240.973 133.203 C 241.006 128.684,241.006 121.288,240.973 116.769 C 240.939 112.250,240.911 115.947,240.911 124.986 M355.562 119.508 C 355.565 120.000,355.611 120.175,355.664 119.897 C 355.717 119.619,355.715 119.216,355.659 119.002 C 355.604 118.789,355.560 119.016,355.562 119.508 M174.950 136.277 C 174.949 142.057,174.978 144.454,175.014 141.603 C 175.049 138.752,175.049 134.023,175.014 131.094 C 174.978 128.165,174.950 130.497,174.950 136.277 M373.673 139.184 C 373.675 139.676,373.721 139.851,373.775 139.573 C 373.828 139.294,373.826 138.892,373.770 138.678 C 373.714 138.464,373.670 138.692,373.673 139.184 M240.914 172.722 C 240.914 189.939,240.940 196.949,240.973 188.300 C 241.005 179.652,241.005 165.565,240.973 156.998 C 240.940 148.430,240.914 155.506,240.914 172.722 M373.901 151.146 C 373.901 151.699,373.945 151.926,373.998 151.649 C 374.051 151.372,374.051 150.920,373.998 150.643 C 373.945 150.366,373.901 150.593,373.901 151.146 M373.901 153.382 C 373.901 153.935,373.945 154.162,373.998 153.885 C 374.051 153.608,374.051 153.155,373.998 152.879 C 373.945 152.602,373.901 152.828,373.901 153.382 M373.901 155.618 C 373.901 156.171,373.945 156.397,373.998 156.121 C 374.051 155.844,374.051 155.391,373.998 155.115 C 373.945 154.838,373.901 155.064,373.901 155.618 M373.904 157.742 C 373.906 158.357,373.949 158.582,374.001 158.242 C 374.052 157.902,374.051 157.399,373.998 157.124 C 373.944 156.849,373.902 157.127,373.904 157.742 M373.904 159.978 C 373.906 160.593,373.949 160.818,374.001 160.478 C 374.052 160.138,374.051 159.635,373.998 159.360 C 373.944 159.085,373.902 159.363,373.904 159.978 M373.907 162.549 C 373.907 163.225,373.949 163.502,374.000 163.164 C 374.052 162.826,374.052 162.272,374.000 161.934 C 373.949 161.596,373.907 161.873,373.907 162.549 M356.259 185.579 C 356.259 186.870,356.296 187.398,356.341 186.752 C 356.387 186.107,356.387 185.050,356.341 184.405 C 356.296 183.759,356.259 184.287,356.259 185.579 M374.153 190.274 C 374.153 192.057,374.187 192.786,374.230 191.895 C 374.272 191.003,374.272 189.544,374.230 188.653 C 374.187 187.761,374.153 188.491,374.153 190.274 M77.977 265.781 C 78.253 265.834,78.706 265.834,78.983 265.781 C 79.259 265.728,79.033 265.684,78.480 265.684 C 77.926 265.684,77.700 265.728,77.977 265.781 M157.247 373.728 C 157.248 374.343,157.292 374.568,157.343 374.228 C 157.395 373.888,157.393 373.385,157.340 373.110 C 157.287 372.835,157.245 373.113,157.247 373.728 M157.254 385.467 C 157.254 386.266,157.295 386.593,157.345 386.193 C 157.394 385.794,157.394 385.140,157.345 384.740 C 157.295 384.340,157.254 384.667,157.254 385.467 M174.920 426.048 C 174.921 426.909,174.961 427.234,175.009 426.770 C 175.058 426.306,175.057 425.602,175.008 425.205 C 174.958 424.808,174.919 425.187,174.920 426.048 M157.034 431.973 C 157.034 432.895,157.074 433.273,157.122 432.812 C 157.170 432.350,157.170 431.596,157.122 431.135 C 157.074 430.674,157.034 431.051,157.034 431.973 M26.235 460.816 C 26.235 461.738,26.275 462.116,26.323 461.655 C 26.371 461.193,26.371 460.439,26.323 459.978 C 26.275 459.516,26.235 459.894,26.235 460.816 M26.231 463.946 C 26.231 464.746,26.272 465.073,26.322 464.673 C 26.371 464.273,26.371 463.619,26.322 463.220 C 26.272 462.820,26.231 463.147,26.231 463.946 M157.011 464.617 C 157.011 465.048,157.057 465.224,157.113 465.008 C 157.170 464.793,157.170 464.441,157.113 464.226 C 157.057 464.011,157.011 464.187,157.011 464.617 M241.990 482.281 C 241.990 482.957,242.032 483.234,242.083 482.895 C 242.134 482.557,242.134 482.004,242.083 481.666 C 242.032 481.328,241.990 481.604,241.990 482.281 M76.190 491.159 C 76.469 491.212,76.871 491.210,77.085 491.154 C 77.299 491.098,77.071 491.054,76.579 491.057 C 76.087 491.059,75.912 491.105,76.190 491.159 M125.489 491.155 C 125.704 491.211,126.056 491.211,126.272 491.155 C 126.487 491.098,126.311 491.052,125.880 491.052 C 125.450 491.052,125.274 491.098,125.489 491.155 M275.070 491.389 C 275.777 491.434,276.934 491.434,277.641 491.389 C 278.348 491.345,277.770 491.309,276.356 491.309 C 274.941 491.309,274.363 491.345,275.070 491.389 M316.554 491.390 C 317.328 491.434,318.535 491.433,319.237 491.389 C 319.940 491.345,319.307 491.309,317.831 491.310 C 316.356 491.310,315.781 491.346,316.554 491.390 M252.827 509.497 C 253.229 509.547,253.832 509.546,254.168 509.495 C 254.504 509.444,254.176 509.403,253.438 509.404 C 252.700 509.405,252.425 509.447,252.827 509.497 M340.697 509.497 C 341.099 509.547,341.703 509.546,342.039 509.495 C 342.375 509.444,342.046 509.403,341.308 509.404 C 340.570 509.405,340.295 509.447,340.697 509.497 "
        stroke="none" fill-rule="evenodd"></path>
      <path id="path4"
        d="M280.771 27.221 C 282.032 27.261,284.094 27.261,285.355 27.221 C 286.615 27.181,285.584 27.149,283.063 27.149 C 280.542 27.149,279.511 27.181,280.771 27.221 M318.117 45.329 C 318.642 45.376,319.447 45.375,319.905 45.327 C 320.363 45.279,319.933 45.241,318.949 45.242 C 317.965 45.242,317.591 45.282,318.117 45.329 M26.212 60.369 C 26.212 60.799,26.258 60.975,26.314 60.760 C 26.370 60.545,26.370 60.193,26.314 59.978 C 26.258 59.762,26.212 59.939,26.212 60.369 M373.010 73.449 C 373.011 74.064,373.055 74.289,373.106 73.949 C 373.158 73.609,373.156 73.106,373.103 72.831 C 373.050 72.556,373.008 72.834,373.010 73.449 M373.010 75.908 C 373.011 76.523,373.055 76.748,373.106 76.408 C 373.158 76.068,373.156 75.565,373.103 75.290 C 373.050 75.015,373.008 75.293,373.010 75.908 M373.010 78.368 C 373.011 78.983,373.055 79.208,373.106 78.868 C 373.158 78.528,373.156 78.025,373.103 77.750 C 373.050 77.475,373.008 77.753,373.010 78.368 M44.340 79.486 C 44.341 80.224,44.383 80.498,44.433 80.097 C 44.482 79.695,44.481 79.091,44.430 78.755 C 44.379 78.419,44.339 78.748,44.340 79.486 M373.010 80.604 C 373.011 81.219,373.055 81.444,373.106 81.104 C 373.158 80.764,373.156 80.261,373.103 79.986 C 373.050 79.711,373.008 79.989,373.010 80.604 M373.010 82.840 C 373.011 83.454,373.055 83.679,373.106 83.340 C 373.158 83.000,373.156 82.497,373.103 82.222 C 373.050 81.947,373.008 82.225,373.010 82.840 M373.010 85.075 C 373.011 85.690,373.055 85.915,373.106 85.575 C 373.158 85.236,373.156 84.733,373.103 84.458 C 373.050 84.183,373.008 84.461,373.010 85.075 M174.946 101.845 C 174.946 105.903,174.976 107.594,175.014 105.604 C 175.051 103.613,175.051 100.293,175.014 98.225 C 174.977 96.158,174.946 97.786,174.946 101.845 M355.339 99.385 C 355.341 99.877,355.387 100.052,355.440 99.774 C 355.494 99.496,355.492 99.093,355.436 98.879 C 355.380 98.666,355.336 98.893,355.339 99.385 M373.230 100.838 C 373.230 101.392,373.274 101.618,373.327 101.342 C 373.380 101.065,373.380 100.612,373.327 100.335 C 373.274 100.059,373.230 100.285,373.230 100.838 M240.911 124.986 C 240.911 134.025,240.939 137.722,240.973 133.203 C 241.006 128.684,241.006 121.288,240.973 116.769 C 240.939 112.250,240.911 115.947,240.911 124.986 M355.562 119.508 C 355.565 120.000,355.611 120.175,355.664 119.897 C 355.717 119.619,355.715 119.216,355.659 119.002 C 355.604 118.789,355.560 119.016,355.562 119.508 M174.950 136.277 C 174.949 142.057,174.978 144.454,175.014 141.603 C 175.049 138.752,175.049 134.023,175.014 131.094 C 174.978 128.165,174.950 130.497,174.950 136.277 M373.673 139.184 C 373.675 139.676,373.721 139.851,373.775 139.573 C 373.828 139.294,373.826 138.892,373.770 138.678 C 373.714 138.464,373.670 138.692,373.673 139.184 M240.914 172.722 C 240.914 189.939,240.940 196.949,240.973 188.300 C 241.005 179.652,241.005 165.565,240.973 156.998 C 240.940 148.430,240.914 155.506,240.914 172.722 M373.901 151.146 C 373.901 151.699,373.945 151.926,373.998 151.649 C 374.051 151.372,374.051 150.920,373.998 150.643 C 373.945 150.366,373.901 150.593,373.901 151.146 M373.901 153.382 C 373.901 153.935,373.945 154.162,373.998 153.885 C 374.051 153.608,374.051 153.155,373.998 152.879 C 373.945 152.602,373.901 152.828,373.901 153.382 M373.901 155.618 C 373.901 156.171,373.945 156.397,373.998 156.121 C 374.051 155.844,374.051 155.391,373.998 155.115 C 373.945 154.838,373.901 155.064,373.901 155.618 M373.904 157.742 C 373.906 158.357,373.949 158.582,374.001 158.242 C 374.052 157.902,374.051 157.399,373.998 157.124 C 373.944 156.849,373.902 157.127,373.904 157.742 M373.904 159.978 C 373.906 160.593,373.949 160.818,374.001 160.478 C 374.052 160.138,374.051 159.635,373.998 159.360 C 373.944 159.085,373.902 159.363,373.904 159.978 M373.907 162.549 C 373.907 163.225,373.949 163.502,374.000 163.164 C 374.052 162.826,374.052 162.272,374.000 161.934 C 373.949 161.596,373.907 161.873,373.907 162.549 M356.259 185.579 C 356.259 186.870,356.296 187.398,356.341 186.752 C 356.387 186.107,356.387 185.050,356.341 184.405 C 356.296 183.759,356.259 184.287,356.259 185.579 M374.153 190.274 C 374.153 192.057,374.187 192.786,374.230 191.895 C 374.272 191.003,374.272 189.544,374.230 188.653 C 374.187 187.761,374.153 188.491,374.153 190.274 M77.977 265.781 C 78.253 265.834,78.706 265.834,78.983 265.781 C 79.259 265.728,79.033 265.684,78.480 265.684 C 77.926 265.684,77.700 265.728,77.977 265.781 M157.247 373.728 C 157.248 374.343,157.292 374.568,157.343 374.228 C 157.395 373.888,157.393 373.385,157.340 373.110 C 157.287 372.835,157.245 373.113,157.247 373.728 M157.254 385.467 C 157.254 386.266,157.295 386.593,157.345 386.193 C 157.394 385.794,157.394 385.140,157.345 384.740 C 157.295 384.340,157.254 384.667,157.254 385.467 M174.920 426.048 C 174.921 426.909,174.961 427.234,175.009 426.770 C 175.058 426.306,175.057 425.602,175.008 425.205 C 174.958 424.808,174.919 425.187,174.920 426.048 M157.034 431.973 C 157.034 432.895,157.074 433.273,157.122 432.812 C 157.170 432.350,157.170 431.596,157.122 431.135 C 157.074 430.674,157.034 431.051,157.034 431.973 M26.235 460.816 C 26.235 461.738,26.275 462.116,26.323 461.655 C 26.371 461.193,26.371 460.439,26.323 459.978 C 26.275 459.516,26.235 459.894,26.235 460.816 M26.231 463.946 C 26.231 464.746,26.272 465.073,26.322 464.673 C 26.371 464.273,26.371 463.619,26.322 463.220 C 26.272 462.820,26.231 463.147,26.231 463.946 M157.011 464.617 C 157.011 465.048,157.057 465.224,157.113 465.008 C 157.170 464.793,157.170 464.441,157.113 464.226 C 157.057 464.011,157.011 464.187,157.011 464.617 M241.990 482.281 C 241.990 482.957,242.032 483.234,242.083 482.895 C 242.134 482.557,242.134 482.004,242.083 481.666 C 242.032 481.328,241.990 481.604,241.990 482.281 M76.190 491.159 C 76.469 491.212,76.871 491.210,77.085 491.154 C 77.299 491.098,77.071 491.054,76.579 491.057 C 76.087 491.059,75.912 491.105,76.190 491.159 M125.489 491.155 C 125.704 491.211,126.056 491.211,126.272 491.155 C 126.487 491.098,126.311 491.052,125.880 491.052 C 125.450 491.052,125.274 491.098,125.489 491.155 M275.070 491.389 C 275.777 491.434,276.934 491.434,277.641 491.389 C 278.348 491.345,277.770 491.309,276.356 491.309 C 274.941 491.309,274.363 491.345,275.070 491.389 M316.554 491.390 C 317.328 491.434,318.535 491.433,319.237 491.389 C 319.940 491.345,319.307 491.309,317.831 491.310 C 316.356 491.310,315.781 491.346,316.554 491.390 M252.827 509.497 C 253.229 509.547,253.832 509.546,254.168 509.495 C 254.504 509.444,254.176 509.403,253.438 509.404 C 252.700 509.405,252.425 509.447,252.827 509.497 M340.697 509.497 C 341.099 509.547,341.703 509.546,342.039 509.495 C 342.375 509.444,342.046 509.403,341.308 509.404 C 340.570 509.405,340.295 509.447,340.697 509.497 "
        stroke="none" fill-rule="evenodd"></path>
    </g>
  </svg>